<?xml version="1.0" standalone="no"?>
<!DOCTYPE svg PUBLIC "-//W3C//DTD SVG 20010904//EN"
 "http://www.w3.org/TR/2001/REC-SVG-20010904/DTD/svg10.dtd">
<svg version="1.0" xmlns="http://www.w3.org/2000/svg"
 width="640.000000pt" height="640.000000pt" viewBox="0 0 640.000000 640.000000"
 preserveAspectRatio="xMidYMid meet">

<g transform="translate(0.000000,640.000000) scale(0.100000,-0.100000)"
fill="#000000" stroke="none">
<path d="M0 3200 l0 -3200 3200 0 3200 0 0 3200 0 3200 -3200 0 -3200 0 0
-3200z m4265 1106 c62 -3 144 -14 188 -26 284 -73 454 -289 433 -550 -17 -209
-149 -375 -363 -457 -75 -29 -91 -43 -49 -43 13 0 55 -9 92 -21 172 -53 302
-155 369 -292 37 -75 39 -84 43 -195 3 -88 0 -133 -13 -182 -61 -239 -271
-393 -593 -435 -88 -12 -233 -15 -653 -15 -603 0 -629 2 -736 66 -107 64 -100
57 -491 604 -252 353 -254 355 -295 363 -23 4 -62 6 -87 5 l-45 -3 0 -410 0
-410 25 -49 c31 -62 60 -83 141 -106 50 -13 64 -21 64 -36 0 -18 -14 -19 -425
-19 -425 0 -425 0 -428 21 -3 18 5 23 56 33 74 14 119 44 146 96 21 40 21 50
24 940 2 630 0 911 -8 938 -6 20 -24 53 -41 72 -29 33 -49 42 -136 65 -33 8
-43 16 -43 31 0 20 4 20 588 17 l587 -4 85 -25 c232 -70 377 -201 425 -384 19
-75 19 -242 0 -314 -34 -130 -122 -252 -227 -318 -71 -44 -166 -87 -218 -98
-19 -4 -38 -9 -42 -12 -4 -2 25 -48 65 -101 285 -380 364 -484 468 -617 191
-244 214 -261 250 -181 19 44 19 69 17 958 -3 901 -3 913 -24 948 -40 69 -108
98 -259 109 -69 5 -90 9 -90 21 0 8 11 17 24 20 28 6 1012 3 1176 -4z"/>
<path d="M2133 4199 c-69 -20 -68 -13 -71 -515 l-3 -452 67 -8 c97 -10 260 2
335 25 84 26 143 71 190 144 62 95 81 157 86 282 6 136 -6 208 -53 304 -80
161 -213 232 -433 230 -47 0 -101 -5 -118 -10z"/>
<path d="M3930 4204 c-59 -11 -67 -15 -78 -39 -9 -19 -12 -148 -12 -455 l0
-430 26 -6 c15 -4 88 -4 163 -1 150 6 219 24 294 76 177 121 229 441 107 656
-51 88 -129 150 -230 179 -54 16 -223 29 -270 20z"/>
<path d="M3842 2726 c3 -421 4 -435 24 -463 37 -51 86 -67 204 -67 168 0 262
31 354 115 98 89 146 215 146 379 0 183 -73 334 -197 407 -90 52 -148 63 -349
63 l-185 0 3 -434z"/>
</g>
</svg>
